<svg xmlns="http://www.w3.org/2000/svg" x="0px" y="0px"
width="48" height="48"
viewBox="0 0 171 171"
style=" fill:#8DA0E2;"><g fill="none" fill-rule="nonzero" stroke="none" stroke-width="1" stroke-linecap="butt" stroke-linejoin="miter" stroke-miterlimit="10" stroke-dasharray="" stroke-dashoffset="0" font-family="none" font-weight="none" font-size="none" text-anchor="none" style="mix-blend-mode: normal"><path d="M0,171.99654v-171.99654h171.99654v171.99654z" fill="none"></path><g fill="#8da0e2"><path d="M48.04504,46.23596c-1.41125,0.03333 -2.75199,0.62365 -3.72949,1.64209l-35.625,35.625c-2.08603,2.08689 -2.08603,5.4695 0,7.5564l35.625,35.625c1.34031,1.39595 3.33057,1.95826 5.20321,1.47007c1.87264,-0.4882 3.33506,-1.95061 3.82325,-3.82325c0.4882,-1.87264 -0.07411,-3.8629 -1.47007,-5.20321l-26.50305,-26.50305h120.26221l-26.50305,26.50305c-1.39595,1.34031 -1.95826,3.33057 -1.47007,5.20321c0.4882,1.87264 1.95061,3.33506 3.82325,3.82325c1.87264,0.4882 3.8629,-0.07411 5.20321,-1.47007l35.625,-35.625c2.08603,-2.08689 2.08603,-5.4695 0,-7.5564l-35.625,-35.625c-1.00633,-1.03634 -2.38932,-1.62116 -3.83386,-1.62122c-2.17542,0.00053 -4.13343,1.31963 -4.9511,3.33554c-0.81767,2.01591 -0.33181,4.32626 1.22857,5.84208l26.50305,26.50305h-120.26221l26.50305,-26.50305c1.5905,-1.52656 2.08043,-3.8731 1.23361,-5.90854c-0.84681,-2.03543 -2.85657,-3.34202 -5.06052,-3.28995z"></path></g></g></svg>