<svg xmlns="http://www.w3.org/2000/svg" x="0px" y="0px" width="48" height="48" viewBox="0 0 171 171" ><g fill="none" fill-rule="nonzero" stroke="none" stroke-width="1" stroke-linecap="butt" stroke-linejoin="miter" stroke-miterlimit="10" stroke-dasharray="" stroke-dashoffset="0" font-family="none" font-weight="none" font-size="none" text-anchor="none" style="mix-blend-mode: normal"><path d="M0,171.99654v-171.99654h171.99654v171.99654z" fill="none"></path><g fill="#8da0e2"><path d="M156.75,85.5c0,39.28725 -31.96275,71.25 -71.25,71.25c-39.28725,0 -71.25,-31.96275 -71.25,-71.25c0,-39.28725 31.96275,-71.25 71.25,-71.25c39.28725,0 71.25,31.96275 71.25,71.25zM85.5,106.875c-3.93656,0 -7.125,3.18844 -7.125,7.125c0,3.93656 3.18844,7.125 7.125,7.125c3.93656,0 7.125,-3.18844 7.125,-7.125c0,-3.93656 -3.18844,-7.125 -7.125,-7.125zM90.84375,90.84375v-35.625c0,-2.94975 -2.39044,-5.34375 -5.34375,-5.34375c-2.95331,0 -5.34375,2.394 -5.34375,5.34375v35.625c0,2.94975 2.39044,5.34375 5.34375,5.34375c2.95331,0 5.34375,-2.394 5.34375,-5.34375z"></path></g></g></svg>