<svg xmlns="http://www.w3.org/2000/svg" x="0px" y="0px" width="48" height="48" viewBox="0 0 171 171"><g fill="none" fill-rule="nonzero" stroke="none" stroke-width="1" stroke-linecap="butt" stroke-linejoin="miter" stroke-miterlimit="10" stroke-dasharray="" stroke-dashoffset="0" font-family="none" font-weight="none" font-size="none" text-anchor="none" style="mix-blend-mode: normal"><path d="M0,171.99654v-171.99654h171.99654v171.99654z" fill="none"></path><g fill="#8da0e2"><path d="M112.21875,14.25h-53.4375c-8.83856,0 -16.03125,7.19269 -16.03125,16.03125v110.4375c0,8.83856 7.19269,16.03125 16.03125,16.03125h53.4375c8.83856,0 16.03125,-7.19269 16.03125,-16.03125v-110.4375c0,-8.83856 -7.19269,-16.03125 -16.03125,-16.03125zM57,53.4375c0,-5.90306 4.78444,-10.6875 10.6875,-10.6875c5.90306,0 10.6875,4.78444 10.6875,10.6875c0,5.90306 -4.78444,10.6875 -10.6875,10.6875c-5.90306,0 -10.6875,-4.78444 -10.6875,-10.6875zM94.40625,138.9375h-17.8125c-2.95331,0 -5.34375,-2.394 -5.34375,-5.34375c0,-2.94975 2.39044,-5.34375 5.34375,-5.34375h17.8125c2.95331,0 5.34375,2.394 5.34375,5.34375c0,2.94975 -2.39044,5.34375 -5.34375,5.34375zM110.4375,90.84375c0,2.94975 -2.39044,5.34375 -5.34375,5.34375h-39.1875c-2.95331,0 -5.34375,-2.394 -5.34375,-5.34375v-21.10425c2.18738,0.96187 4.5885,1.5105 7.125,1.5105c1.21837,0 2.41181,-0.12469 3.5625,-0.35981v14.60981h28.5v-28.5h-14.60981c0.23512,-1.15069 0.35981,-2.34412 0.35981,-3.5625c0,-2.5365 -0.54863,-4.93762 -1.5105,-7.125h21.10425c2.95331,0 5.34375,2.394 5.34375,5.34375z"></path></g></g></svg>