<?xml version="1.0" encoding="UTF-8"?>
<svg xmlns="http://www.w3.org/2000/svg" xmlns:xlink="http://www.w3.org/1999/xlink" width="375pt" height="374.999991pt" viewBox="0 0 375 374.999991" version="1.2">
<defs>
<filter id="alpha" filterUnits="objectBoundingBox" x="0%" y="0%" width="100%" height="100%">
  <feColorMatrix type="matrix" in="SourceGraphic" values="0 0 0 0 1 0 0 0 0 1 0 0 0 0 1 0 0 0 1 0"/>
</filter>
<mask id="mask0">
  <g filter="url(#alpha)">
<rect x="0" y="0" width="375" height="374.999991" style="fill:rgb(0%,0%,0%);fill-opacity:0.8;stroke:none;"/>
  </g>
</mask>
<clipPath id="clip2">
  <path d="M 0.824219 0.28125 L 238.628906 0.28125 L 238.628906 223.164062 L 0.824219 223.164062 Z M 0.824219 0.28125 "/>
</clipPath>
<clipPath id="clip1">
  <rect x="0" y="0" width="239" height="224"/>
</clipPath>
<g id="surface5" clip-path="url(#clip1)">
<g clip-path="url(#clip2)" clip-rule="nonzero">
<path style=" stroke:none;fill-rule:nonzero;fill:rgb(32.159424%,44.309998%,100%);fill-opacity:1;" d="M 226.128906 2.285156 L 3.1875 210.3125 C 2.644531 210.820312 2.1875 211.398438 1.816406 212.046875 C 1.449219 212.691406 1.179688 213.378906 1.019531 214.105469 C 0.855469 214.832031 0.800781 215.566406 0.859375 216.308594 C 0.914062 217.050781 1.082031 217.769531 1.355469 218.460938 C 1.628906 219.152344 1.996094 219.792969 2.460938 220.375 C 2.925781 220.953125 3.464844 221.457031 4.082031 221.875 C 4.695312 222.292969 5.359375 222.613281 6.070312 222.835938 C 6.785156 223.054688 7.511719 223.164062 8.257812 223.164062 L 231.195312 223.164062 C 231.683594 223.164062 232.167969 223.117188 232.648438 223.023438 C 233.125 222.929688 233.589844 222.785156 234.042969 222.601562 C 234.492188 222.414062 234.921875 222.183594 235.324219 221.914062 C 235.730469 221.644531 236.105469 221.335938 236.453125 220.988281 C 236.796875 220.644531 237.105469 220.269531 237.375 219.863281 C 237.648438 219.457031 237.875 219.03125 238.0625 218.578125 C 238.25 218.128906 238.390625 217.664062 238.484375 217.1875 C 238.582031 216.707031 238.628906 216.222656 238.628906 215.738281 L 238.628906 7.710938 C 238.628906 6.988281 238.523438 6.277344 238.316406 5.585938 C 238.109375 4.894531 237.804688 4.246094 237.40625 3.640625 C 237.011719 3.035156 236.535156 2.5 235.980469 2.035156 C 235.429688 1.570312 234.820312 1.191406 234.15625 0.90625 C 233.492188 0.617188 232.800781 0.429688 232.082031 0.34375 C 231.363281 0.257812 230.648438 0.277344 229.9375 0.398438 C 229.222656 0.519531 228.542969 0.742188 227.894531 1.066406 C 227.246094 1.386719 226.65625 1.792969 226.128906 2.285156 Z M 226.128906 2.285156 "/>
<path style=" stroke:none;fill-rule:nonzero;fill:rgb(32.159424%,44.309998%,100%);fill-opacity:1;" d="M 238.628906 7.710938 L 238.628906 215.738281 C 238.628906 216.222656 238.582031 216.707031 238.484375 217.1875 C 238.390625 217.664062 238.25 218.128906 238.0625 218.578125 C 237.875 219.03125 237.648438 219.457031 237.375 219.863281 C 237.105469 220.269531 236.796875 220.644531 236.453125 220.988281 C 236.105469 221.335938 235.730469 221.644531 235.324219 221.914062 C 234.921875 222.183594 234.492188 222.414062 234.042969 222.601562 C 233.589844 222.785156 233.125 222.929688 232.648438 223.023438 C 232.167969 223.117188 231.683594 223.164062 231.195312 223.164062 L 8.257812 223.164062 C 7.511719 223.164062 6.785156 223.054688 6.070312 222.835938 C 5.359375 222.613281 4.695312 222.292969 4.082031 221.875 C 3.464844 221.457031 2.925781 220.953125 2.460938 220.375 C 1.996094 219.792969 1.628906 219.152344 1.355469 218.460938 C 1.082031 217.769531 0.914062 217.050781 0.859375 216.308594 C 0.800781 215.566406 0.855469 214.832031 1.015625 214.105469 C 1.179688 213.378906 1.449219 212.691406 1.816406 212.046875 C 2.1875 211.398438 2.644531 210.820312 3.1875 210.3125 L 226.128906 2.285156 C 226.65625 1.792969 227.246094 1.386719 227.894531 1.066406 C 228.542969 0.742188 229.222656 0.519531 229.9375 0.398438 C 230.648438 0.277344 231.363281 0.257812 232.082031 0.34375 C 232.800781 0.429688 233.492188 0.617188 234.15625 0.90625 C 234.820312 1.191406 235.429688 1.570312 235.980469 2.035156 C 236.535156 2.5 237.011719 3.035156 237.40625 3.640625 C 237.804688 4.246094 238.109375 4.894531 238.316406 5.585938 C 238.523438 6.277344 238.628906 6.988281 238.628906 7.710938 Z M 223.765625 208.308594 L 223.765625 24.796875 L 27.117188 208.308594 Z M 223.765625 208.308594 "/>
</g>
</g>
<mask id="mask1">
  <g filter="url(#alpha)">
<rect x="0" y="0" width="375" height="374.999991" style="fill:rgb(0%,0%,0%);fill-opacity:0.8;stroke:none;"/>
  </g>
</mask>
<clipPath id="clip4">
  <path d="M 0.941406 0.28125 L 238.746094 0.28125 L 238.746094 223.164062 L 0.941406 223.164062 Z M 0.941406 0.28125 "/>
</clipPath>
<clipPath id="clip3">
  <rect x="0" y="0" width="239" height="224"/>
</clipPath>
<g id="surface8" clip-path="url(#clip3)">
<g clip-path="url(#clip4)" clip-rule="nonzero">
<path style=" stroke:none;fill-rule:nonzero;fill:rgb(32.159424%,44.309998%,100%);fill-opacity:1;" d="M 226.246094 2.285156 L 3.304688 210.3125 C 2.761719 210.820312 2.304688 211.398438 1.933594 212.046875 C 1.566406 212.691406 1.296875 213.378906 1.132812 214.105469 C 0.96875 214.832031 0.917969 215.566406 0.976562 216.308594 C 1.03125 217.050781 1.199219 217.769531 1.46875 218.460938 C 1.742188 219.152344 2.113281 219.792969 2.578125 220.375 C 3.042969 220.953125 3.582031 221.457031 4.199219 221.875 C 4.8125 222.292969 5.476562 222.613281 6.1875 222.835938 C 6.898438 223.054688 7.628906 223.164062 8.375 223.164062 L 231.3125 223.164062 C 231.800781 223.164062 232.285156 223.117188 232.761719 223.023438 C 233.242188 222.929688 233.707031 222.785156 234.15625 222.601562 C 234.609375 222.414062 235.035156 222.183594 235.441406 221.914062 C 235.847656 221.644531 236.222656 221.335938 236.570312 220.988281 C 236.914062 220.644531 237.222656 220.269531 237.492188 219.863281 C 237.765625 219.457031 237.992188 219.03125 238.179688 218.578125 C 238.367188 218.128906 238.507812 217.664062 238.601562 217.1875 C 238.699219 216.707031 238.746094 216.222656 238.746094 215.738281 L 238.746094 7.710938 C 238.742188 6.988281 238.640625 6.277344 238.433594 5.585938 C 238.222656 4.894531 237.921875 4.246094 237.523438 3.640625 C 237.128906 3.035156 236.652344 2.5 236.097656 2.035156 C 235.542969 1.570312 234.9375 1.191406 234.273438 0.90625 C 233.609375 0.617188 232.917969 0.429688 232.199219 0.34375 C 231.480469 0.257812 230.765625 0.277344 230.054688 0.398438 C 229.339844 0.519531 228.660156 0.742188 228.011719 1.066406 C 227.363281 1.386719 226.773438 1.792969 226.246094 2.285156 Z M 226.246094 2.285156 "/>
<path style=" stroke:none;fill-rule:nonzero;fill:rgb(32.159424%,44.309998%,100%);fill-opacity:1;" d="M 238.746094 7.710938 L 238.746094 215.738281 C 238.746094 216.222656 238.699219 216.707031 238.601562 217.1875 C 238.507812 217.664062 238.367188 218.128906 238.179688 218.578125 C 237.992188 219.03125 237.765625 219.457031 237.492188 219.863281 C 237.222656 220.269531 236.914062 220.644531 236.570312 220.988281 C 236.222656 221.335938 235.847656 221.644531 235.441406 221.914062 C 235.035156 222.183594 234.609375 222.414062 234.15625 222.601562 C 233.707031 222.785156 233.242188 222.929688 232.761719 223.023438 C 232.285156 223.117188 231.800781 223.164062 231.3125 223.164062 L 8.375 223.164062 C 7.628906 223.164062 6.898438 223.054688 6.1875 222.835938 C 5.476562 222.613281 4.8125 222.292969 4.199219 221.875 C 3.582031 221.457031 3.042969 220.953125 2.578125 220.375 C 2.113281 219.792969 1.742188 219.152344 1.46875 218.460938 C 1.199219 217.769531 1.03125 217.050781 0.976562 216.308594 C 0.917969 215.566406 0.96875 214.832031 1.132812 214.105469 C 1.296875 213.378906 1.566406 212.691406 1.933594 212.046875 C 2.304688 211.398438 2.761719 210.820312 3.304688 210.3125 L 226.246094 2.285156 C 226.773438 1.792969 227.363281 1.386719 228.011719 1.066406 C 228.660156 0.742188 229.339844 0.519531 230.054688 0.398438 C 230.765625 0.277344 231.480469 0.257812 232.199219 0.34375 C 232.917969 0.429688 233.609375 0.617188 234.273438 0.90625 C 234.9375 1.191406 235.542969 1.570312 236.097656 2.035156 C 236.652344 2.5 237.128906 3.035156 237.523438 3.640625 C 237.921875 4.246094 238.222656 4.894531 238.433594 5.585938 C 238.640625 6.277344 238.742188 6.988281 238.746094 7.710938 Z M 223.882812 208.308594 L 223.882812 24.796875 L 27.234375 208.308594 Z M 223.882812 208.308594 "/>
</g>
</g>
</defs>
<g id="surface1">
<use xlink:href="#surface5" transform="matrix(1,0,0,1,8,76)" mask="url(#mask0)"/>
<use xlink:href="#surface8" transform="matrix(1,0,0,1,127,76)" mask="url(#mask1)"/>
</g>
</svg>
